<svg width="100" height="100" viewBox="0 0 100 100" fill="none" xmlns="http://www.w3.org/2000/svg">
    <!-- Símbolo solo (red neuronal) - Para favicon, iconos pequeños -->
    <defs>
        <filter id="symbolShadow" x="-50%" y="-50%" width="200%" height="200%">
            <feDropShadow dx="0" dy="0" stdDeviation="1" flood-color="#000000" flood-opacity="0.3"/>
        </filter>
    </defs>
    
    <!-- Red neuronal -->
    <!-- Nodos externos -->
    <circle cx="50" cy="20" r="8" fill="#0BA5BE" filter="url(#symbolShadow)" />
    <circle cx="20" cy="50" r="8" fill="#0BA5BE" filter="url(#symbolShadow)" />
    <circle cx="80" cy="50" r="8" fill="#0BA5BE" filter="url(#symbolShadow)" />
    <circle cx="35" cy="80" r="8" fill="#0BA5BE" filter="url(#symbolShadow)" />
    <circle cx="65" cy="80" r="8" fill="#0BA5BE" filter="url(#symbolShadow)" />
    
    <!-- Conexiones -->
    <line x1="50" y1="20" x2="20" y2="50" stroke="#0BA5BE" stroke-width="2" opacity="0.6" />
    <line x1="50" y1="20" x2="80" y2="50" stroke="#0BA5BE" stroke-width="2" opacity="0.6" />
    <line x1="20" y1="50" x2="35" y2="80" stroke="#0BA5BE" stroke-width="2" opacity="0.6" />
    <line x1="20" y1="50" x2="65" y2="80" stroke="#0BA5BE" stroke-width="2" opacity="0.6" />
    <line x1="80" y1="50" x2="35" y2="80" stroke="#0BA5BE" stroke-width="2" opacity="0.6" />
    <line x1="80" y1="50" x2="65" y2="80" stroke="#0BA5BE" stroke-width="2" opacity="0.6" />
    <line x1="35" y1="80" x2="65" y2="80" stroke="#0BA5BE" stroke-width="2" opacity="0.6" />
    
    <!-- Nodos internos pequeños -->
    <circle cx="50" cy="35" r="4" fill="white" opacity="0.8" />
    <circle cx="35" cy="50" r="4" fill="white" opacity="0.8" />
    <circle cx="65" cy="50" r="4" fill="white" opacity="0.8" />
    <circle cx="50" cy="65" r="4" fill="white" opacity="0.8" />
    
    <!-- Nodo central -->
    <circle cx="50" cy="50" r="18" fill="#0BA5BE" stroke="white" stroke-width="2.5" filter="url(#symbolShadow)" />
</svg>
