<svg width="280" height="100" viewBox="0 0 280 100" fill="none" xmlns="http://www.w3.org/2000/svg">
    <!-- Logo horizontal completo - Optimizado para fondos claros y oscuros -->
    <defs>
        <linearGradient id="textGradient" x1="0%" y1="0%" x2="100%" y2="100%">
            <stop offset="0%" style="stop-color: #0CA5BE; stop-opacity: 1" />
            <stop offset="50%" style="stop-color: #57CDDF; stop-opacity: 1" />
            <stop offset="100%" style="stop-color: #0BA5BE; stop-opacity: 1" />
        </linearGradient>
        
        <!-- Filtro de sombra para mejorar contraste en fondos claros -->
        <filter id="textShadow" x="-50%" y="-50%" width="200%" height="200%">
            <feDropShadow dx="0" dy="0" stdDeviation="1" flood-color="#000000" flood-opacity="0.3"/>
        </filter>
    </defs>
    
    <!-- Red neuronal -->
    <!-- Nodos externos -->
    <circle cx="50" cy="20" r="8" fill="#0BA5BE" />
    <circle cx="20" cy="50" r="8" fill="#0BA5BE" />
    <circle cx="80" cy="50" r="8" fill="#0BA5BE" />
    <circle cx="35" cy="80" r="8" fill="#0BA5BE" />
    <circle cx="65" cy="80" r="8" fill="#0BA5BE" />
    
    <!-- Conexiones -->
    <line x1="50" y1="20" x2="20" y2="50" stroke="#0BA5BE" stroke-width="2" opacity="0.6" />
    <line x1="50" y1="20" x2="80" y2="50" stroke="#0BA5BE" stroke-width="2" opacity="0.6" />
    <line x1="20" y1="50" x2="35" y2="80" stroke="#0BA5BE" stroke-width="2" opacity="0.6" />
    <line x1="20" y1="50" x2="65" y2="80" stroke="#0BA5BE" stroke-width="2" opacity="0.6" />
    <line x1="80" y1="50" x2="35" y2="80" stroke="#0BA5BE" stroke-width="2" opacity="0.6" />
    <line x1="80" y1="50" x2="65" y2="80" stroke="#0BA5BE" stroke-width="2" opacity="0.6" />
    <line x1="35" y1="80" x2="65" y2="80" stroke="#0BA5BE" stroke-width="2" opacity="0.6" />
    
    <!-- Nodos internos pequeños -->
    <circle cx="50" cy="35" r="4" fill="white" opacity="0.8" />
    <circle cx="35" cy="50" r="4" fill="white" opacity="0.8" />
    <circle cx="65" cy="50" r="4" fill="white" opacity="0.8" />
    <circle cx="50" cy="65" r="4" fill="white" opacity="0.8" />
    
    <!-- Nodo central -->
    <circle cx="50" cy="50" r="18" fill="#0BA5BE" stroke="white" stroke-width="2.5" />
    
    <!-- Texto CMSR92 con gradiente y sombra sutil -->
    <text x="120" y="62" font-family="monospace" font-size="42" font-weight="bold" fill="url(#textGradient)" text-anchor="start" filter="url(#textShadow)">CMSR92</text>
</svg>
